# xmcd CD database file
#
# Track frame offsets:
#	200
#	12917
#	24852
#	38545
#	48955
#	64025
#	75752
#	87927
#	102020
#	115217
#
# Disc length: 1755 seconds
#
# Revision: 1
# Processed by: cddbd v1.4PL0 Copyright (c) Steve Scherf et al.
# Submitted via: CDex 1.51
#
DISCID=5f06d90a
DTITLE=Chris Hillman - Morning Sky
DYEAR=1982
DGENRE=Bluegrass
TTITLE0=Tomorrow is a Long Time
TTITLE1=The Taker
TTITLE2=Here Today and Gone Tomorrow
TTITLE3=Morning Sky
TTITLE4=Ripple
TTITLE5=Good Time Charlie's Got The Blues
TTITLE6=Don't Let Your Sweet Love Die
TTITLE7=Mexico
TTITLE8=It's Happening To You
TTITLE9=Hickory Wind
EXTD=YEAR: 1982
EXTT0=
EXTT1=
EXTT2=
EXTT3=
EXTT4=
EXTT5=
EXTT6=
EXTT7=
EXTT8=
EXTT9=
PLAYORDER=
